<?xml version="1.0" encoding="UTF-8" standalone="no"?>
<!DOCTYPE svg PUBLIC "-//W3C//DTD SVG 1.1//EN"
 "http://www.w3.org/Graphics/SVG/1.1/DTD/svg11.dtd">
<!-- Generated by graphviz version 7.0.6 (20230106.0513)
 -->
<!-- Pages: 1 -->
<svg width="1057pt" height="476pt"
 viewBox="0.00 0.00 1057.08 476.00" xmlns="http://www.w3.org/2000/svg" xmlns:xlink="http://www.w3.org/1999/xlink">
<g id="graph0" class="graph" transform="scale(1 1) rotate(0) translate(4 472)">
<polygon fill="white" stroke="none" points="-4,4 -4,-472 1053.08,-472 1053.08,4 -4,4"/>
<!-- [root] aws_cloudwatch_log_group.trackman (expand) -->
<g id="node1" class="node">
<title>[root] aws_cloudwatch_log_group.trackman (expand)</title>
<polygon fill="none" stroke="black" points="735.31,-324 511.31,-324 511.31,-288 735.31,-288 735.31,-324"/>
<text text-anchor="middle" x="623.31" y="-302.3" font-family="Times,serif" font-size="14.00">aws_cloudwatch_log_group.trackman</text>
</g>
<!-- [root] aws_lambda_function.trackman (expand) -->
<g id="node3" class="node">
<title>[root] aws_lambda_function.trackman (expand)</title>
<polygon fill="none" stroke="black" points="718.81,-252 527.81,-252 527.81,-216 718.81,-216 718.81,-252"/>
<text text-anchor="middle" x="623.31" y="-230.3" font-family="Times,serif" font-size="14.00">aws_lambda_function.trackman</text>
</g>
<!-- [root] aws_cloudwatch_log_group.trackman (expand)&#45;&gt;[root] aws_lambda_function.trackman (expand) -->
<g id="edge1" class="edge">
<title>[root] aws_cloudwatch_log_group.trackman (expand)&#45;&gt;[root] aws_lambda_function.trackman (expand)</title>
<path fill="none" stroke="black" d="M623.31,-287.7C623.31,-280.41 623.31,-271.73 623.31,-263.54"/>
<polygon fill="black" stroke="black" points="626.81,-263.62 623.31,-253.62 619.81,-263.62 626.81,-263.62"/>
</g>
<!-- [root] aws_iam_role.trackman_role (expand) -->
<g id="node2" class="node">
<title>[root] aws_iam_role.trackman_role (expand)</title>
<polygon fill="none" stroke="black" points="753.31,-180 577.31,-180 577.31,-144 753.31,-144 753.31,-180"/>
<text text-anchor="middle" x="665.31" y="-158.3" font-family="Times,serif" font-size="14.00">aws_iam_role.trackman_role</text>
</g>
<!-- [root] data.aws_iam_policy_document.lambda&#45;role&#45;policy (expand) -->
<g id="node7" class="node">
<title>[root] data.aws_iam_policy_document.lambda&#45;role&#45;policy (expand)</title>
<polygon fill="none" stroke="black" points="857.81,-108 556.81,-108 556.81,-72 857.81,-72 857.81,-108"/>
<text text-anchor="middle" x="707.31" y="-86.3" font-family="Times,serif" font-size="14.00">data.aws_iam_policy_document.lambda&#45;role&#45;policy</text>
</g>
<!-- [root] aws_iam_role.trackman_role (expand)&#45;&gt;[root] data.aws_iam_policy_document.lambda&#45;role&#45;policy (expand) -->
<g id="edge2" class="edge">
<title>[root] aws_iam_role.trackman_role (expand)&#45;&gt;[root] data.aws_iam_policy_document.lambda&#45;role&#45;policy (expand)</title>
<path fill="none" stroke="black" d="M675.7,-143.7C680.37,-135.9 686.01,-126.51 691.22,-117.83"/>
<polygon fill="black" stroke="black" points="694.13,-119.78 696.27,-109.4 688.13,-116.18 694.13,-119.78"/>
</g>
<!-- [root] aws_lambda_function.trackman (expand)&#45;&gt;[root] aws_iam_role.trackman_role (expand) -->
<g id="edge3" class="edge">
<title>[root] aws_lambda_function.trackman (expand)&#45;&gt;[root] aws_iam_role.trackman_role (expand)</title>
<path fill="none" stroke="black" d="M633.7,-215.7C638.37,-207.9 644.01,-198.51 649.22,-189.83"/>
<polygon fill="black" stroke="black" points="652.13,-191.78 654.27,-181.4 646.13,-188.18 652.13,-191.78"/>
</g>
<!-- [root] data.archive_file.trackman (expand) -->
<g id="node6" class="node">
<title>[root] data.archive_file.trackman (expand)</title>
<polygon fill="none" stroke="black" points="416.31,-180 254.31,-180 254.31,-144 416.31,-144 416.31,-180"/>
<text text-anchor="middle" x="335.31" y="-158.3" font-family="Times,serif" font-size="14.00">data.archive_file.trackman</text>
</g>
<!-- [root] aws_lambda_function.trackman (expand)&#45;&gt;[root] data.archive_file.trackman (expand) -->
<g id="edge4" class="edge">
<title>[root] aws_lambda_function.trackman (expand)&#45;&gt;[root] data.archive_file.trackman (expand)</title>
<path fill="none" stroke="black" d="M551.38,-215.52C510.85,-205.67 460.06,-193.32 417.91,-183.07"/>
<polygon fill="black" stroke="black" points="418.84,-179.7 408.3,-180.74 417.19,-186.5 418.84,-179.7"/>
</g>
<!-- [root] aws_s3_bucket.bucket (expand) -->
<g id="node4" class="node">
<title>[root] aws_s3_bucket.bucket (expand)</title>
<polygon fill="none" stroke="black" points="955.81,-252 816.81,-252 816.81,-216 955.81,-216 955.81,-252"/>
<text text-anchor="middle" x="886.31" y="-230.3" font-family="Times,serif" font-size="14.00">aws_s3_bucket.bucket</text>
</g>
<!-- [root] provider[&quot;registry.terraform.io/hashicorp/aws&quot;] -->
<g id="node9" class="node">
<title>[root] provider[&quot;registry.terraform.io/hashicorp/aws&quot;]</title>
<polygon fill="none" stroke="black" points="796.31,-36 543.78,-18 796.31,0 1048.85,-18 796.31,-36"/>
<text text-anchor="middle" x="796.31" y="-14.3" font-family="Times,serif" font-size="14.00">provider[&quot;registry.terraform.io/hashicorp/aws&quot;]</text>
</g>
<!-- [root] aws_s3_bucket.bucket (expand)&#45;&gt;[root] provider[&quot;registry.terraform.io/hashicorp/aws&quot;] -->
<g id="edge5" class="edge">
<title>[root] aws_s3_bucket.bucket (expand)&#45;&gt;[root] provider[&quot;registry.terraform.io/hashicorp/aws&quot;]</title>
<path fill="none" stroke="black" d="M888.51,-215.65C891.56,-184.57 894.05,-118.31 867.31,-72 859.97,-59.28 848.23,-48.68 836.39,-40.38"/>
<polygon fill="black" stroke="black" points="838.51,-37.59 828.23,-35.05 834.69,-43.45 838.51,-37.59"/>
</g>
<!-- [root] aws_s3_bucket_versioning.bucket_versioning (expand) -->
<g id="node5" class="node">
<title>[root] aws_s3_bucket_versioning.bucket_versioning (expand)</title>
<polygon fill="none" stroke="black" points="1019.31,-324 753.31,-324 753.31,-288 1019.31,-288 1019.31,-324"/>
<text text-anchor="middle" x="886.31" y="-302.3" font-family="Times,serif" font-size="14.00">aws_s3_bucket_versioning.bucket_versioning</text>
</g>
<!-- [root] aws_s3_bucket_versioning.bucket_versioning (expand)&#45;&gt;[root] aws_s3_bucket.bucket (expand) -->
<g id="edge6" class="edge">
<title>[root] aws_s3_bucket_versioning.bucket_versioning (expand)&#45;&gt;[root] aws_s3_bucket.bucket (expand)</title>
<path fill="none" stroke="black" d="M886.31,-287.7C886.31,-280.41 886.31,-271.73 886.31,-263.54"/>
<polygon fill="black" stroke="black" points="889.81,-263.62 886.31,-253.62 882.81,-263.62 889.81,-263.62"/>
</g>
<!-- [root] provider[&quot;registry.terraform.io/hashicorp/archive&quot;] -->
<g id="node8" class="node">
<title>[root] provider[&quot;registry.terraform.io/hashicorp/archive&quot;]</title>
<polygon fill="none" stroke="black" points="269.31,-108 0.19,-90 269.31,-72 538.44,-90 269.31,-108"/>
<text text-anchor="middle" x="269.31" y="-86.3" font-family="Times,serif" font-size="14.00">provider[&quot;registry.terraform.io/hashicorp/archive&quot;]</text>
</g>
<!-- [root] data.archive_file.trackman (expand)&#45;&gt;[root] provider[&quot;registry.terraform.io/hashicorp/archive&quot;] -->
<g id="edge7" class="edge">
<title>[root] data.archive_file.trackman (expand)&#45;&gt;[root] provider[&quot;registry.terraform.io/hashicorp/archive&quot;]</title>
<path fill="none" stroke="black" d="M319,-143.7C310.93,-135.14 301.06,-124.67 292.25,-115.33"/>
<polygon fill="black" stroke="black" points="294.98,-113.12 285.57,-108.25 289.89,-117.92 294.98,-113.12"/>
</g>
<!-- [root] data.aws_iam_policy_document.lambda&#45;role&#45;policy (expand)&#45;&gt;[root] provider[&quot;registry.terraform.io/hashicorp/aws&quot;] -->
<g id="edge8" class="edge">
<title>[root] data.aws_iam_policy_document.lambda&#45;role&#45;policy (expand)&#45;&gt;[root] provider[&quot;registry.terraform.io/hashicorp/aws&quot;]</title>
<path fill="none" stroke="black" d="M729.31,-71.7C740.72,-62.73 754.8,-51.65 767.1,-41.98"/>
<polygon fill="black" stroke="black" points="769.2,-44.78 774.9,-35.84 764.87,-39.27 769.2,-44.78"/>
</g>
<!-- [root] provider[&quot;registry.terraform.io/hashicorp/archive&quot;] (close) -->
<g id="node10" class="node">
<title>[root] provider[&quot;registry.terraform.io/hashicorp/archive&quot;] (close)</title>
<ellipse fill="none" stroke="black" cx="335.31" cy="-378" rx="239.36" ry="18"/>
<text text-anchor="middle" x="335.31" y="-374.3" font-family="Times,serif" font-size="14.00">[root] provider[&quot;registry.terraform.io/hashicorp/archive&quot;] (close)</text>
</g>
<!-- [root] provider[&quot;registry.terraform.io/hashicorp/archive&quot;] (close)&#45;&gt;[root] data.archive_file.trackman (expand) -->
<g id="edge9" class="edge">
<title>[root] provider[&quot;registry.terraform.io/hashicorp/archive&quot;] (close)&#45;&gt;[root] data.archive_file.trackman (expand)</title>
<path fill="none" stroke="black" d="M335.31,-359.85C335.31,-323.14 335.31,-236.66 335.31,-191.53"/>
<polygon fill="black" stroke="black" points="338.81,-191.75 335.31,-181.75 331.81,-191.75 338.81,-191.75"/>
</g>
<!-- [root] provider[&quot;registry.terraform.io/hashicorp/aws&quot;] (close) -->
<g id="node11" class="node">
<title>[root] provider[&quot;registry.terraform.io/hashicorp/aws&quot;] (close)</title>
<ellipse fill="none" stroke="black" cx="820.31" cy="-378" rx="227.46" ry="18"/>
<text text-anchor="middle" x="820.31" y="-374.3" font-family="Times,serif" font-size="14.00">[root] provider[&quot;registry.terraform.io/hashicorp/aws&quot;] (close)</text>
</g>
<!-- [root] provider[&quot;registry.terraform.io/hashicorp/aws&quot;] (close)&#45;&gt;[root] aws_cloudwatch_log_group.trackman (expand) -->
<g id="edge10" class="edge">
<title>[root] provider[&quot;registry.terraform.io/hashicorp/aws&quot;] (close)&#45;&gt;[root] aws_cloudwatch_log_group.trackman (expand)</title>
<path fill="none" stroke="black" d="M772.37,-359.97C745.51,-350.42 711.76,-338.43 683.18,-328.27"/>
<polygon fill="black" stroke="black" points="684.52,-325.03 673.92,-324.98 682.17,-331.63 684.52,-325.03"/>
</g>
<!-- [root] provider[&quot;registry.terraform.io/hashicorp/aws&quot;] (close)&#45;&gt;[root] aws_s3_bucket_versioning.bucket_versioning (expand) -->
<g id="edge11" class="edge">
<title>[root] provider[&quot;registry.terraform.io/hashicorp/aws&quot;] (close)&#45;&gt;[root] aws_s3_bucket_versioning.bucket_versioning (expand)</title>
<path fill="none" stroke="black" d="M836.63,-359.7C844.38,-351.47 853.8,-341.48 862.34,-332.42"/>
<polygon fill="black" stroke="black" points="864.83,-334.88 869.15,-325.21 859.74,-330.08 864.83,-334.88"/>
</g>
<!-- [root] root -->
<g id="node12" class="node">
<title>[root] root</title>
<ellipse fill="none" stroke="black" cx="577.31" cy="-450" rx="47.39" ry="18"/>
<text text-anchor="middle" x="577.31" y="-446.3" font-family="Times,serif" font-size="14.00">[root] root</text>
</g>
<!-- [root] root&#45;&gt;[root] provider[&quot;registry.terraform.io/hashicorp/archive&quot;] (close) -->
<g id="edge12" class="edge">
<title>[root] root&#45;&gt;[root] provider[&quot;registry.terraform.io/hashicorp/archive&quot;] (close)</title>
<path fill="none" stroke="black" d="M540.3,-438.29C504.29,-427.88 448.7,-411.8 404.49,-399.01"/>
<polygon fill="black" stroke="black" points="405.55,-395.67 394.97,-396.26 403.6,-402.4 405.55,-395.67"/>
</g>
<!-- [root] root&#45;&gt;[root] provider[&quot;registry.terraform.io/hashicorp/aws&quot;] (close) -->
<g id="edge13" class="edge">
<title>[root] root&#45;&gt;[root] provider[&quot;registry.terraform.io/hashicorp/aws&quot;] (close)</title>
<path fill="none" stroke="black" d="M614.22,-438.37C650.33,-427.97 706.22,-411.87 750.7,-399.05"/>
<polygon fill="black" stroke="black" points="751.64,-402.42 760.28,-396.29 749.71,-395.7 751.64,-402.42"/>
</g>
</g>
</svg>
